# xmcd
#
# Track frame offsets:
#	150
#	10507
#	24375
#	37940
#	51957
#	64270
#	79517
#	90837
#	104887
#	117395
#	127087
#	145700
#
# Disc length: 2200 seconds
#
# Revision: 0
# Processed by: cddbd v1.5.1PL0 Copyright (c) Steve Scherf et al.
# Submitted via: dBpowerAMP V4.0
#
DISCID=9508960c
DTITLE=Dean Osborne - Kentucy Son
DYEAR=2000
DGENRE=Bluegrass
TTITLE0=Ridin' That Midnight Train
TTITLE1=We Should Be Together
TTITLE2=Dimming Of The Day
TTITLE3=Lonesone Feelin'
TTITLE4=Just As I Am
TTITLE5=Till I Was Loved By You
TTITLE6=True Love Is Hard To Find
TTITLE7=Promises
TTITLE8=I Pray My Way Out Of Trouble
TTITLE9=You'll Never Know (How Much It Hurts)
TTITLE10=When Mama Read The Bible To Me
TTITLE11=Dean'O's Blues/Train 45
EXTD=Richard Owens
EXTT0=
EXTT1=
EXTT2=
EXTT3=
EXTT4=
EXTT5=
EXTT6=
EXTT7=
EXTT8=
EXTT9=
EXTT10=
EXTT11=
PLAYORDER=
